<svg width="191" height="184" viewBox="0 0 191 184" fill="none" xmlns="http://www.w3.org/2000/svg">
<g filter="url(#filter0_d_1_10)">
<mask id="path-1-inside-1_1_10" fill="white">
<path d="M187 88C187 136.601 146.034 176 95.5 176C44.9659 176 4 136.601 4 88C4 39.3989 44.9659 0 95.5 0C146.034 0 187 39.3989 187 88ZM23.7214 88C23.7214 126.126 55.8578 157.033 95.5 157.033C135.142 157.033 167.279 126.126 167.279 88C167.279 49.8742 135.142 18.9671 95.5 18.9671C55.8578 18.9671 23.7214 49.8742 23.7214 88Z"/>
</mask>
<path d="M187 88C187 136.601 146.034 176 95.5 176C44.9659 176 4 136.601 4 88C4 39.3989 44.9659 0 95.5 0C146.034 0 187 39.3989 187 88ZM23.7214 88C23.7214 126.126 55.8578 157.033 95.5 157.033C135.142 157.033 167.279 126.126 167.279 88C167.279 49.8742 135.142 18.9671 95.5 18.9671C55.8578 18.9671 23.7214 49.8742 23.7214 88Z" fill="#F84436"/>
<path d="M187 88C187 136.601 146.034 176 95.5 176C44.9659 176 4 136.601 4 88C4 39.3989 44.9659 0 95.5 0C146.034 0 187 39.3989 187 88ZM23.7214 88C23.7214 126.126 55.8578 157.033 95.5 157.033C135.142 157.033 167.279 126.126 167.279 88C167.279 49.8742 135.142 18.9671 95.5 18.9671C55.8578 18.9671 23.7214 49.8742 23.7214 88Z" stroke="black" stroke-width="2" mask="url(#path-1-inside-1_1_10)"/>
</g>
<defs>
<filter id="filter0_d_1_10" x="0" y="0" width="191" height="184" filterUnits="userSpaceOnUse" color-interpolation-filters="sRGB">
<feFlood flood-opacity="0" result="BackgroundImageFix"/>
<feColorMatrix in="SourceAlpha" type="matrix" values="0 0 0 0 0 0 0 0 0 0 0 0 0 0 0 0 0 0 127 0" result="hardAlpha"/>
<feOffset dy="4"/>
<feGaussianBlur stdDeviation="2"/>
<feComposite in2="hardAlpha" operator="out"/>
<feColorMatrix type="matrix" values="0 0 0 0 0 0 0 0 0 0 0 0 0 0 0 0 0 0 0.25 0"/>
<feBlend mode="normal" in2="BackgroundImageFix" result="effect1_dropShadow_1_10"/>
<feBlend mode="normal" in="SourceGraphic" in2="effect1_dropShadow_1_10" result="shape"/>
</filter>
</defs>
</svg>
